<svg viewBox="0 0 24 20" fill="none">
    <path d="M20.7692 0.769287H2.30769C1.03846 0.769287 0.0115384 1.80775 0.0115384 3.07698L0 16.9231C0 18.1924 1.03846 19.2308 2.30769 19.2308H20.7692C22.0385 19.2308 23.0769 18.1924 23.0769 16.9231V3.07698C23.0769 1.80775 22.0385 0.769287 20.7692 0.769287ZM20.3077 5.67313L12.15 10.7731C11.7808 11.0039 11.2962 11.0039 10.9269 10.7731L2.76923 5.67313C2.65353 5.60818 2.55221 5.52043 2.47141 5.4152C2.39061 5.30996 2.33199 5.18942 2.29913 5.06087C2.26626 4.93232 2.25981 4.79844 2.28018 4.66733C2.30055 4.53622 2.34731 4.41061 2.41763 4.2981C2.48795 4.18558 2.58037 4.08851 2.6893 4.01274C2.79822 3.93698 2.92139 3.88411 3.05134 3.85732C3.18129 3.83054 3.31533 3.8304 3.44533 3.85692C3.57534 3.88344 3.69861 3.93606 3.80769 4.01159L11.5385 8.84621L19.2692 4.01159C19.3783 3.93606 19.5016 3.88344 19.6316 3.85692C19.7616 3.8304 19.8956 3.83054 20.0256 3.85732C20.1555 3.88411 20.2787 3.93698 20.3876 4.01274C20.4965 4.08851 20.589 4.18558 20.6593 4.2981C20.7296 4.41061 20.7764 4.53622 20.7967 4.66733C20.8171 4.79844 20.8107 4.93232 20.7778 5.06087C20.7449 5.18942 20.6863 5.30996 20.6055 5.4152C20.5247 5.52043 20.4234 5.60818 20.3077 5.67313V5.67313Z"/>
</svg>
