<svg viewBox="0 0 26 26" fill="none">
    <path d="M16.8063 12.9C16.8063 13.936 16.3947 14.9296 15.6622 15.6621C14.9296 16.3947 13.936 16.8063 12.9 16.8063C11.864 16.8063 10.8705 16.3947 10.1379 15.6621C9.40532 14.9296 8.99377 13.936 8.99377 12.9C8.99377 12.6773 9.01721 12.4599 9.05758 12.249H7.69169V17.4534C7.69169 17.8154 7.98466 18.1083 8.34664 18.1083H17.4547C17.6282 18.108 17.7944 18.0388 17.917 17.916C18.0395 17.7933 18.1084 17.6269 18.1084 17.4534V12.249H16.7425C16.7828 12.4599 16.8063 12.6773 16.8063 12.9V12.9ZM12.9 15.5042C13.2421 15.5041 13.5808 15.4366 13.8968 15.3056C14.2128 15.1747 14.4999 14.9827 14.7417 14.7408C14.9835 14.4988 15.1753 14.2116 15.3062 13.8956C15.437 13.5795 15.5043 13.2408 15.5042 12.8987C15.5041 12.5566 15.4366 12.2179 15.3057 11.9019C15.1747 11.5859 14.9827 11.2988 14.7408 11.057C14.4989 10.8152 14.2117 10.6234 13.8956 10.4926C13.5795 10.3617 13.2408 10.2944 12.8987 10.2945C12.2079 10.2947 11.5454 10.5693 11.057 11.0579C10.5687 11.5465 10.2944 12.2092 10.2946 12.9C10.2947 13.5908 10.5693 14.2533 11.0579 14.7417C11.5466 15.2301 12.2092 15.5043 12.9 15.5042V15.5042ZM16.025 10.1656H17.5862C17.6899 10.1656 17.7894 10.1245 17.8629 10.0513C17.9364 9.97807 17.9778 9.87872 17.9781 9.775V8.2138C17.9781 8.10986 17.9369 8.01017 17.8634 7.93667C17.7899 7.86317 17.6902 7.82188 17.5862 7.82188H16.025C15.9211 7.82188 15.8214 7.86317 15.7479 7.93667C15.6744 8.01017 15.6331 8.10986 15.6331 8.2138V9.775C15.6344 9.98984 15.8102 10.1656 16.025 10.1656V10.1656ZM12.9 0.400002C9.58482 0.400002 6.40539 1.71696 4.06119 4.06117C1.71698 6.40537 0.400024 9.5848 0.400024 12.9C0.400024 16.2152 1.71698 19.3946 4.06119 21.7388C6.40539 24.083 9.58482 25.4 12.9 25.4C14.5415 25.4 16.167 25.0767 17.6836 24.4485C19.2001 23.8203 20.5781 22.8996 21.7389 21.7388C22.8996 20.5781 23.8203 19.2001 24.4485 17.6835C25.0767 16.167 25.4 14.5415 25.4 12.9C25.4 11.2585 25.0767 9.63303 24.4485 8.11646C23.8203 6.59989 22.8996 5.2219 21.7389 4.06117C20.5781 2.90043 19.2001 1.97969 17.6836 1.35151C16.167 0.723324 14.5415 0.400002 12.9 0.400002V0.400002ZM19.4104 17.9638C19.4104 18.7594 18.7594 19.4104 17.9638 19.4104H7.83622C7.04065 19.4104 6.38961 18.7594 6.38961 17.9638V7.8362C6.38961 7.04063 7.04065 6.38958 7.83622 6.38958H17.9638C18.7594 6.38958 19.4104 7.04063 19.4104 7.8362V17.9638V17.9638Z" fill="black"/>
</svg>
