<svg width="53" height="22" viewBox="0 0 53 22" fill="none">
<path d="M37.6105 11.2781V10.447C37.6105 9.71733 37.5123 9.0214 37.3158 8.35925C37.1263 7.6971 36.8702 7.17684 36.5474 6.79847C35.8105 5.93362 34.7614 5.5012 33.4 5.5012H33.0842L32.9368 5.51133C32.3193 5.51133 31.9333 5.57214 31.7789 5.69376C31.6246 5.80862 31.5439 6.03159 31.5368 6.36267C31.5298 6.68698 31.5263 6.89644 31.5263 6.99103L31.5158 7.28494V8.33898L31.5263 8.64302V11.8153L31.5158 12.2612V13.1632L31.5053 13.7612V14.6429L31.5263 14.9368C31.5333 15.0382 31.5368 15.1328 31.5368 15.2206C31.5368 15.6327 31.6211 15.8963 31.7895 16.0111C31.9649 16.126 32.3368 16.1834 32.9053 16.1834H33.5263C34.8386 16.1834 35.8702 15.7172 36.6211 14.7848C36.8807 14.4605 37.1088 13.974 37.3053 13.3254C37.5088 12.67 37.6105 11.9876 37.6105 11.2781ZM33.5684 3.65664C34.614 3.65664 35.6 3.81204 36.5263 4.12285C38.3228 4.71743 39.5263 5.87957 40.1368 7.60926C40.4667 8.54168 40.6316 9.50112 40.6316 10.4876V11.0146C40.6316 12.0416 40.4667 13.0213 40.1368 13.9537C39.4912 15.778 38.2491 16.9874 36.4105 17.582C35.5053 17.8793 34.5158 18.028 33.4421 18.028H31.8947L30.1579 17.9874C29.4281 17.9874 28.9298 17.9503 28.6632 17.8759C28.4035 17.8016 28.2737 17.6361 28.2737 17.3793C28.2737 17.1158 28.3474 16.7949 28.4947 16.4165C28.6421 16.0314 28.7263 15.6564 28.7474 15.2915C28.7754 14.9199 28.7895 13.2713 28.7895 10.3457V6.52482C28.7544 6.13294 28.6561 5.72416 28.4947 5.2985C28.3333 4.86607 28.2526 4.53838 28.2526 4.31541C28.2526 4.09244 28.3719 3.94042 28.6105 3.85934C28.8561 3.7715 29.3333 3.72758 30.0421 3.72758L32.2632 3.65664H33.5684Z" fill="white"/>
<path d="M45.8737 14.4402C45.8737 15.7713 46.5193 16.4368 47.8105 16.4368L47.9158 16.4267C48.6105 16.4267 49.1719 16.1665 49.6 15.6463C50.0281 15.1192 50.2421 14.3456 50.2421 13.3254V12.7882C50.2421 11.6734 50.0526 10.8322 49.6737 10.2646C49.2947 9.69706 48.7614 9.41328 48.0737 9.41328H47.8842C47.0912 9.41328 46.5228 9.68692 46.1789 10.2342C45.9404 10.6193 45.8211 11.3626 45.8211 12.4639V13.4673L45.8316 13.5585L45.8632 14.2476C45.8702 14.3152 45.8737 14.3794 45.8737 14.4402ZM46.6316 8.04506C46.7439 8.04506 47.0702 7.99101 47.6105 7.8829C48.1509 7.76804 48.6561 7.71061 49.1263 7.71061C49.6035 7.71061 50.0807 7.81872 50.5579 8.03493C51.5474 8.49438 52.2526 9.34909 52.6737 10.5991C52.8912 11.2545 53 11.9808 53 12.7781V13.0314C53 14.5922 52.5439 15.8388 51.6316 16.7712C51.2456 17.1699 50.7684 17.4874 50.2 17.7239C49.6316 17.9536 49.0246 18.0685 48.3789 18.0685H48.1263C47.7895 18.0685 47.3298 17.9908 46.7474 17.8354C46.1719 17.68 45.8105 17.6023 45.6632 17.6023C45.5158 17.6023 45.3368 17.6428 45.1263 17.7239C44.9158 17.7982 44.7228 17.8354 44.5474 17.8354C43.986 17.8354 43.607 17.7341 43.4105 17.5314C43.2211 17.3287 43.1263 16.9469 43.1263 16.3861L43.1368 16.1631C43.1439 16.0145 43.1509 15.8625 43.1579 15.7071L43.1895 15.0078C43.2175 14.3862 43.2316 13.8726 43.2316 13.4673V12.1294L43.2421 11.8963V10.4369L43.2526 9.70719V7.02144C43.2526 6.35253 43.2211 5.8897 43.1579 5.63295C43.1018 5.36944 43.0211 5.0958 42.9158 4.81202C42.8175 4.52824 42.7684 4.23095 42.7684 3.92015C42.7684 3.60259 42.8842 3.383 43.1158 3.26138C43.3544 3.13976 43.8351 3.07895 44.5579 3.07895H44.8C45.2491 3.07895 45.5614 3.24111 45.7368 3.56542C45.9193 3.88974 46.0105 4.46406 46.0105 5.28836L46.0421 6.43361C46.0421 7.50791 46.2386 8.04506 46.6316 8.04506Z" fill="white"/>
<path d="M1.77719 22L0 20.2889L13.0116 7.76111C12.6307 6.90556 12.5779 5.93796 12.8529 4.85833C13.1279 3.7787 13.7309 2.81111 14.6618 1.95556C15.7831 0.875926 17.0314 0.244444 18.4066 0.0611111C19.7818 -0.122222 20.9031 0.203704 21.7706 1.03889C22.638 1.87407 22.9765 2.9537 22.7861 4.27778C22.5957 5.60185 21.9398 6.8037 20.8185 7.88333C19.9299 8.77963 18.925 9.36019 17.8036 9.625C16.6823 9.88981 15.6774 9.83889 14.7888 9.47222L13.202 11L22.8496 20.2889L21.0724 22L11.4248 12.7722L1.77719 22ZM5.52198 11.55L1.71372 7.88333C0.57124 6.78333 0 5.46944 0 3.94167C0 2.41389 0.57124 1.1 1.71372 0L9.58413 7.63889L5.52198 11.55Z" fill="white"/>
</svg>
