<svg viewBox="0 0 21 22" fill="none">
    <path d="M18.4615 10.9424C18.4615 8.69235 17.6777 6.78351 16.11 5.21582C14.5431 3.64889 12.6346 2.86543 10.3846 2.86543V0.557739C11.8269 0.557739 13.1781 0.831585 14.4381 1.37928C15.6973 1.92774 16.7935 2.66851 17.7265 3.60159C18.6588 4.53389 19.3992 5.63005 19.9477 6.89005C20.4954 8.14928 20.7692 9.50005 20.7692 10.9424H18.4615ZM13.8462 10.9424C13.8462 9.98082 13.5096 9.16351 12.8365 8.49043C12.1635 7.81735 11.3462 7.48082 10.3846 7.48082V5.17312C11.9808 5.17312 13.3415 5.73543 14.4669 6.86005C15.5915 7.98543 16.1538 9.3462 16.1538 10.9424H13.8462ZM19.5577 21.3847C17.0769 21.3847 14.6588 20.8366 12.3035 19.7404C9.94731 18.6443 7.86077 17.1827 6.04385 15.3558C4.22615 13.5289 2.76462 11.4374 1.65923 9.0812C0.553077 6.72582 0 4.30774 0 1.82697V1.2212C0 1.00966 0.0192307 0.807739 0.0576923 0.615432H6.80769L7.875 6.41351L4.58654 9.73082C5.39423 11.1154 6.40885 12.4135 7.63039 13.625C8.85115 14.8366 10.1923 15.8847 11.6538 16.7693L15 13.4231L20.7692 14.577V21.327C20.5769 21.3462 20.375 21.3608 20.1635 21.3708C19.9519 21.38 19.75 21.3847 19.5577 21.3847Z"/>
</svg>
