<svg viewBox="0 0 27 26" fill="none" xmlns="http://www.w3.org/2000/svg">
<path d="M26.2355 17.3997L26.273 17.2747C27.2399 14.5068 27.2399 11.4928 26.273 8.72485L26.2355 8.59985C25.3232 6.08487 23.66 3.91104 21.4711 2.3728C19.2822 0.834553 16.6735 0.00622334 13.9982 0C11.322 0.00263166 8.71161 0.829552 6.52205 2.36828C4.33249 3.90701 2.67006 6.08285 1.76089 8.59985L1.72339 8.72485C0.75643 11.4928 0.75643 14.5068 1.72339 17.2747L1.76089 17.3997C2.67006 19.9167 4.33249 22.0925 6.52205 23.6313C8.71161 25.17 11.322 25.9969 13.9982 25.9995C16.6743 25.9969 19.2847 25.17 21.4743 23.6313C23.6638 22.0925 25.3263 19.9167 26.2355 17.3997ZM10.8107 17.9997H17.1856C16.5451 19.988 15.4543 21.8017 13.9982 23.2996C12.542 21.8017 11.4513 19.988 10.8107 17.9997V17.9997ZM10.2857 15.9997C9.90251 14.0181 9.90251 11.9814 10.2857 9.99982H17.7106C17.9009 10.9885 17.9972 11.993 17.9981 12.9998C17.9978 14.0066 17.9015 15.0111 17.7106 15.9997H10.2857ZM2.99836 12.9998C3.00049 11.9858 3.13924 10.9767 3.41086 9.99982H8.24827C7.91494 11.9859 7.91494 14.0136 8.24827 15.9997H3.41086C3.13924 15.0228 3.00049 14.0137 2.99836 12.9998V12.9998ZM17.1856 7.99986H10.8107C11.4513 6.0115 12.542 4.1978 13.9982 2.69995C15.4543 4.1978 16.5451 6.0115 17.1856 7.99986V7.99986ZM19.7481 9.99982H24.5855C25.1356 11.962 25.1356 14.0376 24.5855 15.9997H19.7481C20.0814 14.0136 20.0814 11.9859 19.7481 9.99982V9.99982ZM23.798 7.99986H19.2981C18.6966 5.89403 17.6715 3.93319 16.2856 2.23746C17.8859 2.58299 19.3896 3.279 20.6886 4.27541C21.9876 5.27181 23.0496 6.54381 23.798 7.99986V7.99986ZM11.7107 2.23746C10.3248 3.93319 9.29971 5.89403 8.69826 7.99986H4.19834C4.94677 6.54381 6.00871 5.27181 7.3077 4.27541C8.6067 3.279 10.1105 2.58299 11.7107 2.23746V2.23746ZM4.19834 17.9997H8.69826C9.29971 20.1055 10.3248 22.0664 11.7107 23.7621C10.1095 23.419 8.60462 22.724 7.30527 21.7273C6.00592 20.7306 4.94463 19.4573 4.19834 17.9997V17.9997ZM16.2856 23.7621C17.6715 22.0664 18.6966 20.1055 19.2981 17.9997H23.798C23.0517 19.4573 21.9904 20.7306 20.6911 21.7273C19.3917 22.724 17.8869 23.419 16.2856 23.7621V23.7621Z" fill="black"/>
</svg>
