<svg viewBox="0 0 26 26" fill="none">
    <path d="M11.75 15.3687L10.0225 17.4712C9.96578 17.5399 9.92614 17.6211 9.90684 17.708C9.88753 17.795 9.8891 17.8852 9.91142 17.9715C9.93374 18.0577 9.97617 18.1374 10.0352 18.2041C10.0943 18.2707 10.1683 18.3225 10.2512 18.355L11.94 19.0187C12.0243 19.0519 12.1154 19.0643 12.2055 19.0548C12.2957 19.0453 12.3822 19.0142 12.4577 18.9642C12.5333 18.9141 12.5957 18.8466 12.6396 18.7673C12.6835 18.688 12.7076 18.5993 12.71 18.5087L12.7837 15.755C12.7871 15.6333 12.7524 15.5136 12.6843 15.4126C12.6163 15.3116 12.5184 15.2345 12.4043 15.1919C12.2902 15.1493 12.1657 15.1435 12.0482 15.1752C11.9306 15.2069 11.8259 15.2746 11.7487 15.3687H11.75ZM11.4625 13.2787L8.89999 12.3587C8.81634 12.3287 8.72678 12.319 8.63862 12.3302C8.55047 12.3414 8.46621 12.3732 8.39272 12.4232C8.31923 12.4732 8.25859 12.5398 8.21576 12.6177C8.17292 12.6955 8.1491 12.7824 8.14624 12.8712L8.08874 14.685C8.07624 15.0762 8.45624 15.36 8.82749 15.2387L11.4462 14.3825C11.5617 14.3446 11.6625 14.2716 11.7345 14.1738C11.8065 14.0759 11.8462 13.9579 11.848 13.8364C11.8498 13.7149 11.8136 13.5959 11.7445 13.4959C11.6754 13.3959 11.5768 13.32 11.4625 13.2787V13.2787ZM14.3975 13.5737L17.0212 12.85C17.107 12.8264 17.186 12.7828 17.2517 12.7229C17.3174 12.6629 17.368 12.5882 17.3994 12.505C17.4307 12.4217 17.4419 12.3322 17.432 12.2438C17.4221 12.1554 17.3914 12.0705 17.3425 11.9962L16.3462 10.48C16.2964 10.404 16.229 10.3411 16.1497 10.2967C16.0703 10.2524 15.9815 10.2279 15.8906 10.2253C15.7997 10.2227 15.7096 10.2421 15.6279 10.2819C15.5462 10.3217 15.4753 10.3807 15.4212 10.4537L13.775 12.6625C13.7026 12.76 13.6623 12.8776 13.6599 12.9991C13.6575 13.1205 13.693 13.2397 13.7615 13.3399C13.83 13.4402 13.9281 13.5166 14.0421 13.5586C14.1561 13.6005 14.2803 13.6058 14.3975 13.5737V13.5737ZM12.4975 7.27C12.5024 7.16454 12.4824 7.05942 12.4389 6.96322C12.3954 6.86702 12.3298 6.78248 12.2473 6.71652C12.1649 6.65056 12.068 6.60504 11.9647 6.58371C11.8613 6.56237 11.7543 6.56581 11.6525 6.59375L9.57624 7.16C9.47232 7.18822 9.37676 7.24113 9.29767 7.31421C9.21859 7.38729 9.15832 7.47839 9.12199 7.57976C9.08567 7.68113 9.07436 7.78977 9.08902 7.89645C9.10369 8.00313 9.1439 8.10469 9.20624 8.1925L11.5875 12.32C11.6066 12.354 11.6288 12.3862 11.6537 12.4162C11.7334 12.508 11.8357 12.5773 11.9505 12.6171C12.0653 12.6569 12.1885 12.6659 12.3079 12.6431C12.4273 12.6203 12.5385 12.5666 12.6306 12.4873C12.7227 12.408 12.7923 12.3059 12.8325 12.1912C12.8606 12.1038 12.8708 12.0115 12.8625 11.92L12.4962 7.27H12.4975ZM17.0387 15.46L14.405 14.6512C14.2886 14.6152 14.1638 14.6165 14.0482 14.6549C13.9325 14.6933 13.8318 14.767 13.7601 14.8655C13.6885 14.9641 13.6494 15.0826 13.6485 15.2044C13.6476 15.3263 13.6848 15.4454 13.755 15.545L15.3175 17.7725C15.5387 18.085 16 18.0937 16.23 17.7875L17.3237 16.34C17.3786 16.2676 17.4152 16.1831 17.4304 16.0935C17.4456 16.0039 17.4389 15.912 17.4109 15.8256C17.3829 15.7392 17.3345 15.6608 17.2697 15.5972C17.2049 15.5335 17.1256 15.4864 17.0387 15.46V15.46Z" fill="black"/>
    <path d="M12.75 22.75C15.4022 22.75 17.9457 21.6964 19.8211 19.8211C21.6964 17.9457 22.75 15.4022 22.75 12.75C22.75 10.0978 21.6964 7.5543 19.8211 5.67893C17.9457 3.80357 15.4022 2.75 12.75 2.75C10.0978 2.75 7.5543 3.80357 5.67893 5.67893C3.80357 7.5543 2.75 10.0978 2.75 12.75C2.75 15.4022 3.80357 17.9457 5.67893 19.8211C7.5543 21.6964 10.0978 22.75 12.75 22.75V22.75ZM12.75 25.25C5.84625 25.25 0.25 19.6537 0.25 12.75C0.25 5.84625 5.84625 0.25 12.75 0.25C19.6537 0.25 25.25 5.84625 25.25 12.75C25.25 19.6537 19.6537 25.25 12.75 25.25Z" fill="black"/>
</svg>
