<svg width="32" height="32" viewBox="0 0 32 32" fill="none" xmlns="http://www.w3.org/2000/svg">
<g clip-path="url(#clip0_176_6)">
<circle cx="16" cy="16" r="15" fill="#3C1518" stroke="#A44200" stroke-width="2"/>
<path d="M19.7734 16.1011V15.7989C19.7734 15.5336 19.74 15.2805 19.6733 15.0397C19.6089 14.7989 19.5219 14.6098 19.4123 14.4722C19.1621 14.1577 18.8058 14.0004 18.3434 14.0004H18.2361L18.1861 14.0041C17.9764 14.0041 17.8453 14.0262 17.7929 14.0705C17.7404 14.1122 17.713 14.1933 17.7106 14.3137C17.7082 14.4316 17.7071 14.5078 17.7071 14.5422L17.7035 14.6491V15.0324L17.7071 15.1429V16.2965L17.7035 16.4586V16.7866L17.6999 17.0041V17.3247L17.7071 17.4316C17.7094 17.4684 17.7106 17.5028 17.7106 17.5348C17.7106 17.6846 17.7392 17.7805 17.7964 17.8222C17.856 17.864 17.9823 17.8849 18.1754 17.8849H18.3863C18.832 17.8849 19.1823 17.7153 19.4373 17.3763C19.5255 17.2584 19.603 17.0815 19.6697 16.8456C19.7388 16.6073 19.7734 16.3591 19.7734 16.1011ZM18.4006 13.3297C18.7557 13.3297 19.0906 13.3862 19.4052 13.4992C20.0153 13.7154 20.424 14.138 20.6314 14.767C20.7434 15.1061 20.7994 15.455 20.7994 15.8137V16.0053C20.7994 16.3788 20.7434 16.735 20.6314 17.0741C20.4121 17.7375 19.9903 18.1773 19.3658 18.3935C19.0584 18.5016 18.7223 18.5556 18.3577 18.5556H17.8322L17.2423 18.5409C16.9944 18.5409 16.8252 18.5274 16.7347 18.5003C16.6465 18.4733 16.6024 18.4131 16.6024 18.3198C16.6024 18.2239 16.6274 18.1072 16.6775 17.9696C16.7275 17.8296 16.7561 17.6932 16.7633 17.5606C16.7728 17.4254 16.7776 16.8259 16.7776 15.7621V14.3727C16.7656 14.2302 16.7323 14.0815 16.6775 13.9267C16.6226 13.7695 16.5952 13.6503 16.5952 13.5692C16.5952 13.4882 16.6358 13.4329 16.7168 13.4034C16.8002 13.3715 16.9623 13.3555 17.203 13.3555L17.9573 13.3297H18.4006Z" fill="white"/>
<path d="M22.5797 17.251C22.5797 17.735 22.799 17.977 23.2375 17.977L23.2733 17.9733C23.5092 17.9733 23.6999 17.8787 23.8453 17.6895C23.9907 17.4979 24.0634 17.2166 24.0634 16.8456V16.6503C24.0634 16.2449 23.999 15.939 23.8703 15.7326C23.7416 15.5262 23.5605 15.423 23.3269 15.423H23.2626C22.9932 15.423 22.8002 15.5225 22.6834 15.7215C22.6024 15.8616 22.5619 16.1318 22.5619 16.5323V16.8972L22.5654 16.9304L22.5762 17.181C22.5786 17.2055 22.5797 17.2289 22.5797 17.251ZM22.8371 14.9255C22.8753 14.9255 22.9861 14.9058 23.1696 14.8665C23.3531 14.8247 23.5247 14.8039 23.6844 14.8039C23.8465 14.8039 24.0085 14.8432 24.1706 14.9218C24.5067 15.0889 24.7462 15.3997 24.8892 15.8542C24.9631 16.0925 25 16.3567 25 16.6466V16.7387C25 17.3063 24.8451 17.7596 24.5353 18.0986C24.4042 18.2436 24.2421 18.3591 24.0491 18.4451C23.856 18.5286 23.6499 18.5704 23.4306 18.5704H23.3448C23.2304 18.5704 23.0743 18.5421 22.8765 18.4856C22.681 18.4291 22.5583 18.4008 22.5082 18.4008C22.4582 18.4008 22.3974 18.4156 22.3259 18.4451C22.2544 18.4721 22.1889 18.4856 22.1293 18.4856C21.9386 18.4856 21.8099 18.4487 21.7432 18.375C21.6788 18.3013 21.6467 18.1625 21.6467 17.9586L21.6502 17.8775C21.6526 17.8235 21.655 17.7682 21.6574 17.7117L21.6681 17.4574C21.6777 17.2313 21.6824 17.0446 21.6824 16.8972V16.4107L21.686 16.3259V15.7952L21.6896 15.5299V14.5532C21.6896 14.31 21.6788 14.1417 21.6574 14.0483C21.6383 13.9525 21.6109 13.853 21.5752 13.7498C21.5418 13.6466 21.5251 13.5385 21.5251 13.4255C21.5251 13.31 21.5644 13.2302 21.6431 13.186C21.7241 13.1417 21.8874 13.1196 22.1329 13.1196H22.2151C22.3676 13.1196 22.4737 13.1786 22.5333 13.2965C22.5952 13.4145 22.6262 13.6233 22.6262 13.923L22.6369 14.3395C22.6369 14.7301 22.7037 14.9255 22.8371 14.9255Z" fill="white"/>
<path d="M7.60357 20L7 19.3778L11.419 14.8222C11.2897 14.5111 11.2717 14.1593 11.3651 13.7667C11.4585 13.3741 11.6633 13.0222 11.9795 12.7111C12.3603 12.3185 12.7843 12.0889 13.2513 12.0222C13.7184 11.9556 14.0992 12.0741 14.3938 12.3778C14.6884 12.6815 14.8033 13.0741 14.7387 13.5556C14.674 14.037 14.4513 14.4741 14.0704 14.8667C13.7687 15.1926 13.4273 15.4037 13.0465 15.5C12.6657 15.5963 12.3244 15.5778 12.0226 15.4444L11.4837 16L14.7602 19.3778L14.1567 20L10.8801 16.6444L7.60357 20ZM8.87539 16.2L7.58202 14.8667C7.19401 14.4667 7 13.9889 7 13.4333C7 12.8778 7.19401 12.4 7.58202 12L10.255 14.7778L8.87539 16.2Z" fill="white"/>
</g>
<defs>
<clipPath id="clip0_176_6">
<rect width="32" height="32" fill="white"/>
</clipPath>
</defs>
</svg>
